<svg width="249" height="71" viewBox="0 0 249 71" fill="none" xmlns="http://www.w3.org/2000/svg">
<path d="M0.460649 42.1506V69.6752H9.55874C15.271 69.6752 16.699 65.3757 16.699 63.2259V52.5155C16.699 48.2774 21.9199 46.9876 24.5303 46.8724C26.7184 50.3274 32.1082 58.5732 36.162 63.9169C40.2158 69.2606 52.4387 69.2145 58.0435 68.5235L41.2293 42.7264C46.834 40.3463 57.3985 32.2003 54.8188 18.6568C52.2391 5.11335 39.2331 0.575828 33.0525 0H0V8.86775C0.73706 20.0158 12.4379 20.0388 18.1962 18.6568L13.1289 9.44358C14.2805 9.32841 16.9063 9.16718 18.1962 9.44358C19.8085 9.78907 25.5668 15.7777 26.8336 16.9293C28.1004 18.081 35.471 15.8928 38.1198 15.7777C40.7686 15.6625 42.4961 16.9293 43.3023 17.7355C44.1084 18.5417 40.8838 21.1905 39.3866 21.7663C37.8895 22.3421 31.2099 24.1848 30.0582 24.1848C28.9066 24.1848 26.4881 32.1312 25.5668 34.3193C24.8297 36.0699 21.4976 37.1217 19.9236 37.4288V26.8336C3.70832 29.7818 0.191929 38.2734 0.460649 42.1506Z" fill="#0C8CE9"/>
<path d="M70.0469 70.0711C67.9223 70.0711 66.088 69.6158 64.5441 68.7053C63.0002 67.7815 61.8125 66.5411 60.9812 64.984C60.1498 63.4136 59.7341 61.6586 59.7341 59.7187V58.9072C59.7341 56.6771 60.1564 54.7372 61.001 53.0877C61.8455 51.425 63.0002 50.1384 64.4649 49.2279C65.9429 48.3174 67.6122 47.8621 69.4728 47.8621C71.5314 47.8621 73.2403 48.3108 74.5995 49.2081C75.9587 50.0922 76.9748 51.3261 77.6478 52.9096C78.3208 54.4799 78.6573 56.301 78.6573 58.3727V60.4907H62.0896V56.9476H73.8077V56.5715C73.7813 55.7401 73.623 54.9616 73.3327 54.2358C73.0424 53.51 72.5805 52.9228 71.9471 52.4741C71.3269 52.0254 70.4955 51.8011 69.453 51.8011C68.4105 51.8011 67.533 52.098 66.8204 52.6918C66.1078 53.2725 65.5668 54.0972 65.1973 55.1661C64.8278 56.2218 64.6431 57.4688 64.6431 58.9072V59.7187C64.6431 60.9328 64.8674 62.0215 65.3161 62.9848C65.7647 63.9481 66.4179 64.7135 67.2757 65.2809C68.1334 65.8351 69.1561 66.1122 70.3438 66.1122C71.4918 66.1122 72.5079 65.8879 73.3921 65.4392C74.2894 64.9906 75.0614 64.344 75.708 63.4994L78.2812 66.0726C77.6082 67.0887 76.5921 68.0125 75.2329 68.8438C73.8869 69.662 72.1582 70.0711 70.0469 70.0711ZM94.354 55.2057C94.354 54.0972 94.0439 53.2131 93.4237 52.5533C92.8167 51.8935 91.8929 51.5636 90.6525 51.5636C89.9135 51.5636 89.2669 51.6955 88.7127 51.9595C88.1584 52.2102 87.7296 52.5533 87.4261 52.9888C87.1226 53.4242 86.9708 53.9191 86.9708 54.4733H82.0619C82.0619 53.3253 82.4248 52.2498 83.1505 51.2469C83.8763 50.2308 84.899 49.4126 86.2186 48.7924C87.5514 48.1722 89.1218 47.8621 90.9296 47.8621C92.5395 47.8621 93.9713 48.1326 95.2249 48.6736C96.4786 49.2147 97.4617 50.0328 98.1742 51.1281C98.9 52.2234 99.2629 53.5958 99.2629 55.2453V64.6871C99.2629 65.69 99.3355 66.5741 99.4807 67.3395C99.6258 68.1048 99.8304 68.7712 100.094 69.3387V69.6752H95.0666C94.8422 69.1605 94.6641 68.4941 94.5321 67.676C94.4134 66.8578 94.354 66.0595 94.354 65.2809V55.2057ZM95.1062 59.6594H91.7412C89.9993 59.6594 88.6863 59.9827 87.8021 60.6293C86.9312 61.2627 86.4957 62.127 86.4957 63.2223C86.4957 64.0668 86.7861 64.7728 87.3667 65.3403C87.9473 65.8945 88.7655 66.1716 89.8211 66.1716C90.7845 66.1716 91.6224 65.9803 92.335 65.5976C93.0608 65.2017 93.6282 64.7201 94.0373 64.1526C94.4464 63.572 94.6575 63.031 94.6707 62.5295L96.2344 64.7266C96.0761 65.2677 95.8056 65.8483 95.4229 66.4685C95.0534 67.0755 94.5585 67.6562 93.9383 68.2104C93.3313 68.7514 92.6055 69.2001 91.761 69.5564C90.9296 69.8995 89.9597 70.0711 88.8512 70.0711C87.4525 70.0711 86.2054 69.7939 85.1102 69.2397C84.0149 68.6855 83.1505 67.9267 82.5171 66.9634C81.8969 65.9869 81.5868 64.8916 81.5868 63.6776C81.5868 61.4078 82.438 59.666 84.1402 58.4519C85.8425 57.2379 88.2574 56.6309 91.3849 56.6309H95.0666L95.1062 59.6594ZM109.457 69.6752H104.548V39.2715H109.457V69.6752ZM113.732 58.7686C113.732 56.6837 114.128 54.823 114.92 53.1867C115.712 51.5504 116.847 50.2572 118.325 49.3071C119.816 48.3437 121.604 47.8621 123.689 47.8621C125.8 47.8621 127.601 48.3437 129.093 49.3071C130.584 50.2572 131.719 51.5504 132.497 53.1867C133.289 54.823 133.685 56.6837 133.685 58.7686V59.1843C133.685 61.2561 133.289 63.1167 132.497 64.7662C131.719 66.4025 130.584 67.6958 129.093 68.6459C127.615 69.596 125.827 70.0711 123.728 70.0711C121.63 70.0711 119.836 69.596 118.344 68.6459C116.853 67.6958 115.712 66.4025 114.92 64.7662C114.128 63.1167 113.732 61.2561 113.732 59.1843V58.7686ZM118.641 59.1843C118.641 60.4511 118.819 61.6124 119.176 62.6681C119.532 63.7106 120.08 64.5485 120.819 65.1819C121.571 65.8153 122.541 66.132 123.728 66.132C124.903 66.132 125.86 65.8153 126.599 65.1819C127.351 64.5485 127.898 63.7106 128.241 62.6681C128.598 61.6124 128.776 60.4511 128.776 59.1843V58.7686C128.776 57.515 128.598 56.3603 128.241 55.3047C127.898 54.249 127.351 53.4044 126.599 52.771C125.846 52.1244 124.876 51.8011 123.689 51.8011C122.514 51.8011 121.551 52.1244 120.799 52.771C120.06 53.4044 119.512 54.249 119.156 55.3047C118.813 56.3603 118.641 57.515 118.641 58.7686V59.1843ZM146.472 66.132C147.237 66.132 147.93 65.9803 148.55 65.6768C149.17 65.3601 149.665 64.9312 150.035 64.3901C150.404 63.8491 150.609 63.2289 150.648 62.5295H155.28C155.241 63.9415 154.825 65.2149 154.033 66.3498C153.241 67.4846 152.192 68.3886 150.886 69.0616C149.579 69.7346 148.121 70.0711 146.511 70.0711C144.334 70.0711 142.52 69.5894 141.068 68.6261C139.63 67.6496 138.554 66.3498 137.842 64.7266C137.129 63.0903 136.773 61.2825 136.773 59.3031V58.6301C136.773 56.6507 137.129 54.8494 137.842 53.2263C138.554 51.59 139.63 50.2902 141.068 49.3269C142.52 48.3503 144.334 47.8621 146.511 47.8621C148.24 47.8621 149.751 48.2052 151.044 48.8914C152.351 49.5644 153.373 50.5079 154.112 51.7219C154.851 52.936 155.241 54.3545 155.28 55.9777H150.648C150.609 55.2123 150.417 54.5129 150.074 53.8795C149.744 53.2461 149.269 52.7446 148.649 52.3751C148.042 51.9925 147.31 51.8011 146.452 51.8011C145.185 51.8011 144.202 52.131 143.503 52.7908C142.817 53.4506 142.341 54.3018 142.078 55.3443C141.814 56.3867 141.682 57.482 141.682 58.6301V59.3031C141.682 60.4643 141.807 61.5662 142.058 62.6087C142.322 63.6512 142.803 64.5023 143.503 65.1621C144.202 65.8087 145.192 66.132 146.472 66.132ZM170.918 55.2057C170.918 54.0972 170.607 53.2131 169.987 52.5533C169.38 51.8935 168.456 51.5636 167.216 51.5636C166.477 51.5636 165.83 51.6955 165.276 51.9595C164.722 52.2102 164.293 52.5533 163.99 52.9888C163.686 53.4242 163.534 53.9191 163.534 54.4733H158.625C158.625 53.3253 158.988 52.2498 159.714 51.2469C160.44 50.2308 161.463 49.4126 162.782 48.7924C164.115 48.1722 165.685 47.8621 167.493 47.8621C169.103 47.8621 170.535 48.1326 171.788 48.6736C173.042 49.2147 174.025 50.0328 174.738 51.1281C175.464 52.2234 175.826 53.5958 175.826 55.2453V64.6871C175.826 65.69 175.899 66.5741 176.044 67.3395C176.189 68.1048 176.394 68.7712 176.658 69.3387V69.6752H171.63C171.406 69.1605 171.228 68.4941 171.096 67.676C170.977 66.8578 170.918 66.0595 170.918 65.2809V55.2057ZM171.67 59.6594H168.305C166.563 59.6594 165.25 59.9827 164.366 60.6293C163.495 61.2627 163.059 62.127 163.059 63.2223C163.059 64.0668 163.35 64.7728 163.93 65.3403C164.511 65.8945 165.329 66.1716 166.385 66.1716C167.348 66.1716 168.186 65.9803 168.899 65.5976C169.624 65.2017 170.192 64.7201 170.601 64.1526C171.01 63.572 171.221 63.031 171.234 62.5295L172.798 64.7266C172.64 65.2677 172.369 65.8483 171.986 66.4685C171.617 67.0755 171.122 67.6562 170.502 68.2104C169.895 68.7514 169.169 69.2001 168.324 69.5564C167.493 69.8995 166.523 70.0711 165.415 70.0711C164.016 70.0711 162.769 69.7939 161.674 69.2397C160.578 68.6855 159.714 67.9267 159.081 66.9634C158.46 65.9869 158.15 64.8916 158.15 63.6776C158.15 61.4078 159.001 59.666 160.704 58.4519C162.406 57.2379 164.821 56.6309 167.948 56.6309H171.63L171.67 59.6594ZM190.712 51.8803H178.558V48.258H190.712V51.8803ZM186.911 43.0125V63.638C186.911 64.2978 187.004 64.7992 187.188 65.1423C187.373 65.4722 187.637 65.6966 187.98 65.8153C188.323 65.9341 188.719 65.9935 189.168 65.9935C189.498 65.9935 189.814 65.9737 190.118 65.9341C190.421 65.8945 190.665 65.8549 190.85 65.8153V69.596C190.454 69.728 189.992 69.8401 189.465 69.9325C188.95 70.0249 188.343 70.0711 187.644 70.0711C186.548 70.0711 185.572 69.8731 184.714 69.4772C183.869 69.0813 183.203 68.4413 182.715 67.5572C182.24 66.6599 182.002 65.4722 182.002 63.9943V43.0125H186.911ZM199.56 69.6752H194.651V48.258H199.56V69.6752ZM194.334 42.6562C194.334 41.9041 194.578 41.2839 195.066 40.7956C195.555 40.2941 196.234 40.0434 197.105 40.0434C197.976 40.0434 198.662 40.2941 199.164 40.7956C199.665 41.2839 199.916 41.9041 199.916 42.6562C199.916 43.3952 199.665 44.0154 199.164 44.5169C198.662 45.0051 197.976 45.2493 197.105 45.2493C196.234 45.2493 195.555 45.0051 195.066 44.5169C194.578 44.0154 194.334 43.3952 194.334 42.6562ZM203.835 58.7686C203.835 56.6837 204.231 54.823 205.023 53.1867C205.814 51.5504 206.949 50.2572 208.427 49.3071C209.918 48.3437 211.707 47.8621 213.791 47.8621C215.903 47.8621 217.704 48.3437 219.195 49.3071C220.686 50.2572 221.821 51.5504 222.6 53.1867C223.392 54.823 223.788 56.6837 223.788 58.7686V59.1843C223.788 61.2561 223.392 63.1167 222.6 64.7662C221.821 66.4025 220.686 67.6958 219.195 68.6459C217.717 69.596 215.929 70.0711 213.831 70.0711C211.733 70.0711 209.938 69.596 208.447 68.6459C206.956 67.6958 205.814 66.4025 205.023 64.7662C204.231 63.1167 203.835 61.2561 203.835 59.1843V58.7686ZM208.744 59.1843C208.744 60.4511 208.922 61.6124 209.278 62.6681C209.635 63.7106 210.182 64.5485 210.921 65.1819C211.674 65.8153 212.643 66.132 213.831 66.132C215.006 66.132 215.962 65.8153 216.701 65.1819C217.453 64.5485 218.001 63.7106 218.344 62.6681C218.7 61.6124 218.879 60.4511 218.879 59.1843V58.7686C218.879 57.515 218.7 56.3603 218.344 55.3047C218.001 54.249 217.453 53.4044 216.701 52.771C215.949 52.1244 214.979 51.8011 213.791 51.8011C212.617 51.8011 211.654 52.1244 210.902 52.771C210.163 53.4044 209.615 54.249 209.259 55.3047C208.916 56.3603 208.744 57.515 208.744 58.7686V59.1843ZM232.635 69.6752H227.727V48.258H232.339L232.635 52.8304V69.6752ZM230.181 58.2144C230.194 56.1426 230.557 54.3348 231.27 52.7908C231.982 51.2337 232.979 50.0262 234.259 49.1685C235.539 48.2976 237.03 47.8621 238.732 47.8621C240.118 47.8621 241.318 48.126 242.335 48.6539C243.351 49.1685 244.142 50.013 244.71 51.1875C245.277 52.3487 245.561 53.9125 245.561 55.8787V69.6752H240.632V55.8391C240.632 54.8494 240.487 54.0642 240.197 53.4836C239.92 52.903 239.497 52.4939 238.93 52.2564C238.376 52.0057 237.696 51.8803 236.891 51.8803C236.073 51.8803 235.347 52.0452 234.714 52.3751C234.094 52.6918 233.559 53.1405 233.111 53.7211C232.675 54.3018 232.339 54.9748 232.101 55.7401C231.877 56.5055 231.765 57.3237 231.765 58.1946L230.181 58.2144Z" fill="#0C8CE9"/>
</svg>
